<svg fill="none" height="22" viewBox="0 0 400 22" width="400" xmlns="http://www.w3.org/2000/svg"><g fill="#fff"><path d="m17.5772 8.83247v3.14373c0 3.8855.0337 6.2168.1347 6.9939.1011.9537.4715 1.4482 1.0439 1.4835v.4239h-3.3673-3.603v-.4239c.5724-.0706.9092-.4592 1.0439-1.2716.101-.6358.1347-2.4373.1347-5.4044v-1.2363h-7.20604v1.2363c0 2.9671.03368 4.7686.1347 5.4044.10101.7771.43774 1.201 1.01018 1.2716v.4239h-3.50198-3.40096v-.4239c.572439-.0353.909168-.5652 1.01019-1.4835.10102-.7771.13469-3.1084.13469-6.9939v-3.14373c.03367-3.63823-.03367-5.79291-.13469-6.53468-.101022-.88307-.437751-1.377584-.9765171-1.448229v-.423871h3.4346371 3.29994v.423871c-.50509.035323-.80815.494519-.90917 1.271609-.06734.63581-.13469 2.43726-.13469 5.43969v.91838h7.23971v-.95371c0-2.9671-.0337-4.76855-.1347-5.40436-.101-.81242-.4041-1.236286-.9092-1.271609v-.423871h3.401 3.1989v.423871c-.4714.035323-.7408.529839-.8418 1.448229-.0674.74177-.1011 2.89645-.1011 6.53468z"/><path d="m21.9548 11.4573v-2.61388c0-3.63822-.0337-5.7929-.1347-6.49935-.101-.91839-.4041-1.377586-.8755-1.448231v-.459194h3.3673 3.4009v.423872c-.5051.035322-.8081.529843-.9092 1.448223-.0673.74178-.1346 2.89646-.1346 6.49936v2.6139c0 1.6248.2357 2.8611.7408 3.6382.6061 1.0244 1.6163 1.5189 3.0305 1.5189 1.1786 0 2.1214-.4945 2.7949-1.4483.505-.7417.7744-1.978.7744-3.6735v-2.57855c0-3.60291-.0336-5.79291-.1347-6.49936-.101-.91839-.4377-1.37758-1.0102-1.448228v-.494517h3.401 3.2326v.423872c-.4714.035322-.7408.529843-.8418 1.448223-.0674.7771-.1347 2.93178-.1347 6.49936v2.4726c0 2.7198-.5388 4.9098-1.65 6.6053-.5724.9184-1.3806 1.6602-2.4244 2.2607-1.2122.7064-2.5592 1.0596-4.0408 1.0596-3.5356 0-5.9937-1.3776-7.408-4.0974-.6734-1.3069-1.0438-3.2143-1.0438-5.6516z"/><path d="m41.7207 12.1379 1.5826-11.691764h.6735c4.0744 6.817264 6.4652 11.020664 7.206 12.610164h.0337c.7071-1.4835 3.1652-5.68693 7.3406-12.610164h.6735l1.5826 11.691764c.5051 3.7795.8418 6.1108 1.0439 6.9939.202.9537.5388 1.4482.9428 1.4835v.4239h-3.1316-3.4346v-.4239c.5051-.0353.7745-.4591.7745-1.2716 0-.4238-.101-1.4482-.3031-3.0377-.202-1.5895-.3367-3.0024-.404-4.274h-.0337c-.5051 1.1303-1.1112 2.3312-1.852 3.6382-.6398 1.2009-1.6837 2.8611-3.0643 5.0864h-.6734c-1.2796-2.0134-2.3234-3.7442-3.1316-5.1924-.6398-1.1656-1.2459-2.3313-1.7847-3.5322h-.0336c-.0674 1.095-.2021 2.5432-.4041 4.3093-.1684 1.4836-.2694 2.4373-.2694 2.8965 0 .883.2694 1.3775.8082 1.4129v.4238h-3.401-2.9632v-.4238c.4377-.0354.7745-.5299 1.0102-1.4483.303-.989.6734-3.3203 1.2122-7.0645z"/><path d="m78.121 15.0139c0 1.9781-.7744 3.497-2.3571 4.592-1.2795.883-3.2999 1.3422-6.0611 1.3422-.6398 0-1.5152 0-2.5928-.0353-1.3132-.0353-2.1887-.0706-2.5928-.0706v-.4592c.5051 0 .8082-.4946.9092-1.4483.101-.8124.1347-3.1084.1347-6.9585v-3.14373c0-3.60291-.0337-5.75759-.1347-6.49936-.101-.88307-.3704-1.342261-.8418-1.412907v-.529839h2.5928c1.6499-.035322 2.6601-.035323 3.1315-.035323 1.3806 0 2.5592.141291 3.5357.459195.9092.282584 1.6836.812424 2.3234 1.554194.7745.91839 1.1786 2.08404 1.1786 3.46162 0 1.02435-.2694 1.94274-.8419 2.75516-.5724.81242-1.2795 1.34226-2.155 1.55419v.0353c1.0438.212 1.9193.7418 2.6265 1.6249.7744.9184 1.1448 1.978 1.1448 3.2143zm-5.2193-8.61869c0-.67113-.202-1.16565-.5724-1.5542-.3704-.38854-.9092-.60048-1.5489-.60048-.2694 0-.5725.03532-.9429.07064v4.16807c.2021.03533.4378.03533.7071.03533.4041 0 .8082-.07065 1.1449-.24726.8082-.28258 1.2122-.91839 1.2122-1.8721zm.5725 8.15949c0-1.0596-.4714-1.7661-1.448-2.084-.404-.1413-.8081-.2119-1.2795-.2119-.0674 0-.3704.0353-.9092.0353v3.9561c0 .2826.0674.4592.2357.4945.1347.0354.4378.0707.8755.0707.5725 0 1.1112-.1413 1.5826-.4592.6062-.3886.9429-.989.9429-1.8015z"/><path d="m100.85 10.3848c0 3.1084-.9763 5.6517-2.963 7.7004s-4.4448 3.073-7.3743 3.073c-2.8622 0-5.2867-1.0243-7.2734-3.0377s-2.9632-4.486-2.9632-7.4531c0-3.10837 1.0102-5.65159 2.9969-7.66498 2.0204-2.013387 4.5122-3.00242 7.5091-3.00242 2.8958 0 5.2866.95371 7.2059 2.89645 1.9194 1.94274 2.862 4.45065 2.862 7.48835zm-4.8487.2473c0-1.76613-.505-3.21436-1.5152-4.45065s-2.2898-1.83677-3.8051-1.83677c-1.6499 0-2.9968.60048-4.007 1.80145s-1.5153 2.68452-1.5153 4.48597c0 1.7308.5051 3.2144 1.5153 4.38 1.0102 1.201 2.3234 1.7661 3.9397 1.7661s2.8959-.6005 3.906-1.7661c.9766-1.1656 1.4816-2.6139 1.4816-4.38z"/><path d="m103.881 11.887v-3.14375c0-3.6029-.034-5.75758-.135-6.49936-.101-.88306-.438-1.377578-.976-1.448223v-.423871h3.468 3.3v.459194c-.505.070645-.842.56516-.943 1.44823-.101.77709-.135 2.93177-.135 6.49936v7.52372c0 .3532.169.5298.505.5298h3.334c.572 0 1.044-.1059 1.448-.3179.37-.2119.606-.4945.707-.8477h.438c-.034 1.7308-.101 3.4616-.135 5.1924h-5.657-6.297v-.4945c.505-.0353.808-.5652.943-1.4836.101-.7771.135-3.1083.135-6.9938z"/><path d="m134.22 10.3179c0 3.7796-1.313 6.676-3.973 8.6894-1.751 1.3423-4.209 2.0134-7.408 2.0134-.472 0-1.044 0-1.751-.0353-.842 0-1.347-.0354-1.583-.0354-.673 0-1.616-.0353-2.761-.0706v-.4239c.572-.0706.909-.5651 1.01-1.4835.101-.7771.135-3.0731.135-6.9233v-3.14367c0-3.56758-.034-5.72226-.135-6.42871-.101-.84774-.438-1.30693-.976-1.37758v-.459192c.639-.035323 1.649-.070645 3.03-.141291 2.761-.035322 4.007-.070645 3.771-.070645 2.661 0 4.816.494517 6.466 1.448228 1.38.84774 2.458 2.08403 3.165 3.67355.707 1.4129 1.01 3.00242 1.01 4.76851zm-4.849.2826c0-2.15466-.64-3.74418-1.886-4.80385-.942-.7771-2.121-1.16565-3.603-1.16565-.303 0-.74.03532-1.38.10597v11.47983c0 .2826.067.4239.236.4592.235.0706.606.106 1.077.106 1.414 0 2.559-.3886 3.468-1.1657 1.415-1.1303 2.088-2.8258 2.088-5.0158z"/><path d="m141.157 12.084v-7.62968h-3.031c-1.145 0-1.818.45919-2.02 1.34226h-.438v-5.263072h9.395 6.229v5.227742h-.438c-.235-.88306-.909-1.34226-2.02-1.34226h-3.064v7.62971c0 3.8855.034 6.2168.135 6.9939.134.989.505 1.4482 1.077 1.4482v.4238h-3.468-3.502v-.4238c.539-.0707.875-.5652.976-1.5189.135-.7064.169-3.0377.169-6.8879z"/><path d="m170.89 14.8311c0 1.8014-.606 3.2497-1.852 4.3447-1.212 1.095-2.829 1.6601-4.815 1.6601-1.785 0-3.166-.2825-4.21-.8124.034-.9184.102-2.7198.169-5.3337h.404c.37 1.3423 1.448 2.0134 3.233 2.0134 1.481 0 2.222-.6005 2.222-1.8015 0-.6711-.404-1.3422-1.246-2.0487-.438-.3179-1.044-.8477-1.886-1.5542-1.818-1.4482-2.727-3.21433-2.727-5.22772 0-1.73081.572-3.17903 1.683-4.27403 1.213-1.200974 2.829-1.7661357 4.917-1.7661357 1.246 0 2.323.1412907 3.199.4591937-.068 1.095002-.101 2.825812-.135 5.263072h-.404c-.135-.49452-.404-.88307-.842-1.20097-.37-.28258-.875-.42387-1.515-.42387s-1.179.17661-1.549.49452c-.371.3179-.573.74177-.573 1.27161 0 .60048.303 1.16565.91 1.69549.437.38854 1.212 1.05967 2.39 2.01338 1.751 1.51886 2.627 3.24966 2.627 5.22776z" opacity=".65"/><path d="m178.028 12.084v-7.62968h-3.03c-1.145 0-1.818.45919-2.02 1.34226h-.438v-5.263072h9.395 6.229v5.227742h-.404c-.236-.88306-.909-1.34226-2.02-1.34226h-3.065v7.62971c0 3.8855.034 6.2168.135 6.9939.135.989.505 1.4482 1.078 1.4482v.4238h-3.469-3.502v-.4238c.539-.0707.876-.5652.977-1.5189.101-.7064.134-3.0377.134-6.8879z" opacity=".65"/><path d="m197.39 18.0979h-5.455c-.404 1.0244-.606 1.6955-.606 2.0134 0 .3533.202.5652.606.6005v.4592h-3.367-3.132v-.4592c.371-.0353.809-.5298 1.28-1.4482.438-.8831 1.448-3.2144 2.997-6.9939l4.849-11.833054h.741l4.781 11.833054c1.549 3.7795 2.526 6.1108 2.963 6.9939.472.9537.909 1.4482 1.28 1.4835v.4592h-3.165-3.738v-.4592c.37-.0353.572-.2472.572-.6004-.033-.318-.202-1.0244-.606-2.0488zm-4.175-3.7088h2.929l-.033-.0707-.842-2.4372c-.303-.9184-.505-1.5542-.573-1.8721h-.033c-.034.2119-.539 1.6601-1.482 4.3093v.0707z" opacity=".65"/><path d="m207.661 12.084v-7.62968h-3.031c-1.145 0-1.818.45919-2.02 1.34226h-.438v-5.263072h9.395 6.229v5.227742h-.404c-.236-.88306-.909-1.34226-2.02-1.34226h-3.065v7.62971c0 3.8855.034 6.2168.135 6.9939.135.989.505 1.4482 1.078 1.4482v.4238h-3.469-3.502v-.4238c.539-.0707.876-.5652.977-1.5189.067-.7064.135-3.0377.135-6.8879z" opacity=".65"/><path d="m220.692 11.9762v-3.14373c0-3.60291-.034-5.75758-.135-6.53468-.101-.91839-.404-1.377584-.875-1.448229v-.423871h2.155 3.434 6.129l-.135 5.12178h-.404c-.135-.81242-1.077-1.23629-2.795-1.23629h-2.795v4.27403h2.391c.876 0 1.482-.03532 1.785-.10597.303-.07064.505-.24725.572-.52983h.371v2.47259 2.7198h-.371c-.101-.3532-.471-.5651-1.044-.6358-.168-.0353-.572-.0353-1.279-.0353h-2.425v3.5676c0 .4592.169.7418.506.8477h3.401c1.279-.0353 1.986-.4238 2.121-1.1303h.404c-.067 2.6492-.101 4.38-.101 5.1218h-11.988v-.4239c.506-.0353.809-.5652.91-1.4835.101-.8125.168-3.1438.168-6.9939z" opacity=".65"/><path d="m242.344 11.4573v-2.61388c0-3.63822-.034-5.7929-.135-6.49935-.101-.91839-.404-1.377586-.876-1.448231v-.459194h3.368 3.401v.423872c-.505.035322-.808.529843-.909 1.448223-.068.74178-.135 2.89646-.135 6.49936v2.6139c0 1.6248.236 2.8611.741 3.6382.606 1.0244 1.616 1.5189 3.03 1.5189 1.179 0 2.122-.4945 2.795-1.4483.505-.7417.774-1.978.774-3.6735v-2.57855c0-3.60291-.033-5.79291-.134-6.49936-.101-.91839-.438-1.37758-1.01-1.448228v-.494517h3.333 3.233v.423872c-.472.035322-.741.529843-.842 1.448223-.067.7771-.135 2.93178-.135 6.49936v2.4726c0 2.7198-.538 4.9098-1.65 6.6053-.572.9184-1.38 1.6602-2.424 2.2607-1.212.7064-2.559 1.0596-4.041 1.0596-3.535 0-5.994-1.3776-7.408-4.0974-.64-1.3069-.976-3.2143-.976-5.6516z" opacity=".65"/><path d="m279.552 8.68935v12.29225h-.673c-3.906-3.5322-6.566-5.9695-7.947-7.3118-1.212-1.1303-2.425-2.4019-3.67-3.8148h-.068c.034.9537.068 1.7308.068 2.296 0 3.7088.033 5.9342.134 6.7113.101.9184.404 1.4129.943 1.4482v.4239h-3.266-3.031v-.4239c.505-.0353.842-.5652.943-1.4836.101-.7771.135-3.1083.135-6.9938v-11.656495h.673c3.94 3.673555 6.6 6.146135 7.947 7.488395 1.212 1.20097 2.425 2.5079 3.637 3.8855h.067c-.034-1.2716-.034-2.29599-.034-3.07308 0-3.46162-.033-5.58097-.134-6.28743-.101-.88306-.472-1.342255-1.01-1.377578v-.494516h3.266 3.03v.423871c-.471.035322-.774.529843-.875 1.448223-.101.74178-.135 2.89646-.135 6.49936z" opacity=".65"/><path d="m288.879 8.83247v3.14373c0 3.8501.034 6.1461.135 6.9232.101.9184.438 1.4482 1.01 1.5542v.4239h-3.434-3.469v-.4239c.573-.106.91-.6005 1.011-1.5189.101-.7771.134-3.073.134-6.9232v-3.17903c0-3.60291-.033-5.75758-.134-6.49936-.101-.88306-.438-1.342259-.977-1.448226v-.459194h3.401 3.367v.459194c-.505.105967-.808.600486-.909 1.448226-.101.7771-.135 2.93178-.135 6.49936z" opacity=".65"/><path d="m306.692 8.84337-5.32 12.43353h-.673l-5.489-12.43353c-1.549-3.53227-2.559-5.68694-2.997-6.49936-.471-.91839-.909-1.377586-1.313-1.448232v-.459194h3.435 3.704v.423872c-.438.035322-.708.282584-.708.671134 0 .45919.607 2.04871 1.785 4.80387.775 1.80145 1.448 3.56758 2.054 5.29844h.067c.539-1.6249 1.179-3.39102 1.954-5.22779 1.144-2.82581 1.717-4.48598 1.717-4.94517 0-.35323-.202-.565162-.606-.600484v-.423872h3.704 2.963v.423872c-.404.035322-.808.529834-1.28 1.377584-.505.88306-1.481 3.07306-2.997 6.60533z" opacity=".65"/><path d="m313.057 11.9762v-3.14373c0-3.60291-.034-5.75758-.135-6.53468-.101-.91839-.404-1.377584-.876-1.448229v-.423871h2.156 3.468 6.128l-.134 5.12178h-.405c-.134-.81242-1.077-1.23629-2.794-1.23629h-2.829v4.27403h2.391c.875 0 1.482-.03532 1.785-.10597.303-.07064.505-.24725.572-.52983h.37v2.47259 2.7198h-.37c-.101-.3532-.471-.5651-1.044-.6358-.168-.0353-.572-.0353-1.279-.0353h-2.425v3.5676c0 .4592.168.7418.505.8477h3.401c1.28-.0353 1.987-.4238 2.122-1.1303h.404c-.068 2.6492-.101 4.38-.101 5.1218h-11.988v-.4239c.505-.0353.808-.5652.909-1.4835.101-.8125.169-3.1438.169-6.9939z" opacity=".65"/><path d="m328.007 12.1379v-3.14369c0-3.60291-.033-5.79291-.134-6.49936-.101-.91839-.371-1.37758-.842-1.4129v-.423875c.202 0 1.145 0 2.828-.035322 2.122-.070646 3.132-.105968 3.031-.105968 1.448 0 2.694.176613 3.738.565165 2.458.88306 3.67 2.8258 3.67 5.82823 0 1.90742-.606 3.42632-1.818 4.52132-.472.4238-.943.7771-1.347.989v.0353c.572.8478 1.986 2.8965 4.243 6.2168.808 1.1657 1.448 1.8015 1.919 1.9074v.4239h-1.28-1.38-1.145-.977c-.606 0-1.01-.106-1.246-.3532-1.346-2.2254-2.794-4.6626-4.343-7.2412h-.573v1.1304c0 2.5785.034 4.2033.135 4.8392.101.7417.404 1.1303.842 1.1656v.4239h-3.065-3.232v-.4239c.471-.0353.774-.5652.875-1.4835.068-.7065.101-3.0378.101-6.9233zm7.779-5.05111c0-.81242-.236-1.44823-.674-1.90742-.437-.45919-1.043-.70645-1.818-.70645-.034 0-.37 0-.976.03532v5.33371c.168.03533.437.03533.74.03533.606 0 1.179-.17662 1.65-.52984.741-.4592 1.078-1.23629 1.078-2.26065z" opacity=".65"/><path d="m354.777 14.8311c0 1.8014-.606 3.2497-1.852 4.3447s-2.828 1.6601-4.815 1.6601c-1.785 0-3.165-.2825-4.209-.8124.034-.9184.101-2.7198.168-5.3337h.404c.371 1.3423 1.448 2.0134 3.233 2.0134 1.482 0 2.222-.6005 2.222-1.8015 0-.6711-.404-1.3422-1.245-2.0487-.438-.3179-1.044-.8477-1.886-1.5542-1.818-1.4482-2.728-3.21433-2.728-5.22772 0-1.73081.573-3.17903 1.684-4.27403 1.179-1.200974 2.829-1.7661357 4.916-1.7661357 1.246 0 2.324.1412907 3.199.4591937-.067 1.095002-.101 2.825812-.135 5.263072h-.404c-.134-.49452-.404-.88307-.875-1.20097-.371-.28258-.876-.42387-1.515-.42387-.64 0-1.179.17661-1.549.49451-.371.31791-.573.74178-.573 1.27162 0 .60048.303 1.16565.909 1.69548.438.38855 1.213 1.05968 2.391 2.01339 1.785 1.51886 2.66 3.24966 2.66 5.22776z" opacity=".65"/><path d="m363.027 8.83247v3.14373c0 3.8501.034 6.1461.135 6.9232.101.9184.438 1.4482 1.01 1.5542v.4239h-3.435-3.468v-.4239c.573-.106.909-.6005 1.01-1.5189.101-.7771.135-3.073.135-6.9232v-3.17903c0-3.60291-.034-5.75758-.135-6.49936-.101-.88306-.437-1.342259-.976-1.448226v-.459194h3.401 3.367v.459194c-.505.105967-.808.600486-.909 1.448226-.101.7771-.135 2.93178-.135 6.49936z" opacity=".65"/><path d="m371.445 12.084v-7.62968h-3.03c-1.145 0-1.818.45919-2.02 1.34226h-.438v-5.263072h9.394 6.23v5.227742h-.404c-.236-.88306-.909-1.34226-2.02-1.34226h-3.065v7.62971c0 3.8855.034 6.2168.135 6.9939.135.989.505 1.4482 1.078 1.4482v.4238h-3.469-3.502v-.4238c.539-.0707.876-.5652.977-1.5189.101-.7064.134-3.0377.134-6.8879z" opacity=".65"/><path d="m394.646 9.60957-1.515 2.79053v1.2362c0 3.0025.033 4.8392.134 5.5104.101.8124.438 1.2363 1.011 1.3069v.4239h-3.401-3.502v-.4239c.538-.0353.875-.4945 1.01-1.2716.101-.6358.135-2.4373.135-5.4397v-.9537l-1.617-3.07306c-2.323-4.38001-3.603-6.78195-3.872-7.27646-.606-.98903-1.111-1.518874-1.515-1.589519v-.423871h3.198 3.839v.423871c-.37.035323-.539.211939-.539.529839s.404 1.34226 1.246 3.03774c.438.88307.977 2.01339 1.65 3.4263h.034c.135-.35323.707-1.44823 1.65-3.28501.943-1.83677 1.414-2.93177 1.414-3.24968 0-.24725-.168-.423866-.471-.459189v-.423871h3.569 2.896v.423871c-.37.070645-.842.565159-1.381 1.518869-.336.60049-1.683 3.00242-3.973 7.24114z" opacity=".65"/></g></svg>